<?xml version="1.0" encoding="iso-8859-1"?>
<!-- Generator: Adobe Illustrator 19.0.0, SVG Export Plug-In . SVG Version: 6.00 Build 0)  -->
<svg version="1.1" id="Capa_1" xmlns="http://www.w3.org/2000/svg" xmlns:xlink="http://www.w3.org/1999/xlink" x="0px" y="0px"
	 viewBox="0 0 511.992 511.992" style="enable-background:new 0 0 511.992 511.992;" xml:space="preserve">
<g>
	<g>
		<path d="M287.992,176.451V80.003c0-6.624-4.064-12.544-10.24-14.912c-6.176-2.432-13.152-0.768-17.6,4.16l-160,176
			c-5.536,6.112-5.536,15.424,0,21.536l160,176c3.104,3.36,7.424,5.216,11.84,5.216c1.952,0,3.904-0.352,5.76-1.056
			c6.176-2.4,10.24-8.32,10.24-14.944v-95.264c66.336,6.048,128.704,48.352,170.624,84.288l26.976,23.136
			c4.704,4.064,11.456,4.992,17.088,2.368c5.696-2.592,9.312-8.288,9.312-14.528v-32
			C511.992,277.347,416.76,183.619,287.992,176.451z"/>
	</g>
</g>
<g>
	<g>
		<path d="M37.624,256.003L187.832,90.755c5.952-6.56,5.44-16.672-1.088-22.624c-6.496-5.856-16.64-5.408-22.592,1.12l-160,176
			c-5.536,6.112-5.536,15.424,0,21.536l160,176c3.168,3.456,7.488,5.216,11.84,5.216c3.84,0,7.712-1.376,10.752-4.16
			c6.528-5.952,7.008-16.064,1.088-22.592L37.624,256.003z"/>
	</g>
</g>
<g>
</g>
<g>
</g>
<g>
</g>
<g>
</g>
<g>
</g>
<g>
</g>
<g>
</g>
<g>
</g>
<g>
</g>
<g>
</g>
<g>
</g>
<g>
</g>
<g>
</g>
<g>
</g>
<g>
</g>
</svg>
